PathFileType	4	(X/Y/Z)	\\Move.snu.ac.kr\motion\Animal\091204_091205_Bird\091205_bird\Project 2\Capture day 2\Session 1\pigeon_015.trc
DataRate	CameraRate	NumFrames	NumMarkers	Units	OrigDataRate	OrigDataStartFrame	OrigNumFrames
240.0	240.0	21	14	mm	240.0	80	2522
Frame#	Time	14MarkersBird:Head			14MarkersBird:C_back			14MarkersBird:Spine			14MarkersBird:L-shoulder			14MarkersBird:L-elbow			14MarkersBird:L-wrist			14MarkersBird:L-hand			14MarkersBird:R-shoulder			14MarkersBird:R-elbow			14MarkersBird:R-Wrist			14MarkersBird:R-hand			14MarkersBird:C_Tail			14MarkersBird:L-Tale			14MarkersBird:R-Tale			
		X1	Y1	Z1	X2	Y2	Z2	X3	Y3	Z3	X4	Y4	Z4	X5	Y5	Z5	X6	Y6	Z6	X7	Y7	Z7	X8	Y8	Z8	X9	Y9	Z9	X10	Y10	Z10	X11	Y11	Z11	X12	Y12	Z12	X13	Y13	Z13	X14	Y14	Z14	

1196	4.979	-160.83141	1442.79443	-664.68890	-102.81441	1427.18542	-681.77924	-53.51756	1409.99207	-698.44983	-121.57195	1429.45935	-651.02460	-95.19046	1443.28809	-649.36407	-95.55640	1456.04858	-607.12408	-83.67094	1476.34692	-589.62128	-137.95251	1426.38013	-696.89655	-120.93936	1445.62097	-715.07764	-147.45383	1455.85095	-743.77954	-151.25076	1482.11084	-772.60345	37.44269	1323.86255	-708.67407	2.73742	1374.07483	-617.20197	-40.99158	1344.63477	-795.18835	
1197	4.983	-164.75052	1443.66309	-663.23773	-106.21401	1428.19397	-680.20197	-57.16098	1412.27612	-697.48639	-125.69784	1429.53430	-649.21460	-97.48360	1441.74609	-643.85034	-102.84481	1445.16577	-599.36035	-92.80537	1460.38098	-576.39508	-142.79147	1425.92041	-695.80603	-126.99510	1444.21130	-714.81628	-157.92058	1445.73621	-744.70526	-167.58983	1464.83984	-776.49597	34.57751	1326.67603	-709.62976	-0.60451	1373.87317	-616.93469	-45.48925	1346.25854	-794.46893	
1198	4.988	-168.81384	1444.42651	-661.71118	-109.64603	1429.52893	-678.58508	-60.67234	1414.62085	-696.53040	-129.91995	1429.49756	-647.29913	-101.37769	1438.11206	-637.08777	-112.54495	1433.51721	-593.96820	-105.42056	1442.78918	-567.42517	-147.53764	1425.66467	-694.43201	-134.79750	1440.78174	-716.26569	-168.73105	1434.72864	-742.39551	-183.78650	1445.56372	-775.05896	31.30029	1329.14612	-710.18115	-3.93159	1373.59375	-616.82062	-50.55909	1348.23840	-793.91296	
1199	4.992	-172.99352	1445.02808	-660.09222	-113.12100	1431.11340	-676.93286	-64.18741	1416.88354	-695.48291	-134.17462	1429.51038	-645.31567	-106.59129	1433.27380	-631.20850	-123.94310	1422.09009	-591.66760	-120.62872	1424.66675	-563.63098	-152.07513	1425.79956	-692.77209	-143.31384	1436.07104	-716.57922	-178.92833	1423.55908	-736.74298	-198.52443	1425.53625	-767.95392	27.50583	1331.13379	-710.46326	-7.15571	1373.30591	-616.87158	-55.83765	1350.54834	-793.42737	
1200	4.996	-177.26857	1445.40942	-658.36603	-116.71583	1432.76245	-675.29761	-67.86301	1419.00952	-694.32343	-138.42850	1429.78638	-643.35437	-112.61111	1428.53918	-627.31238	-136.02078	1412.08350	-592.67218	-137.14983	1407.56775	-565.43439	-156.38446	1426.39893	-690.90308	-150.93781	1431.17407	-714.95294	-187.63266	1413.37842	-728.11383	-210.64267	1406.56848	-755.48065	23.19352	1332.66077	-710.72290	-10.19419	1373.05151	-617.08679	-60.98323	1353.14697	-792.94592	
1201	5.000	-181.63815	1445.51611	-656.53040	-120.51553	1434.31885	-673.78156	-71.77979	1420.90527	-693.06189	-142.67819	1430.41589	-641.53369	-118.31619	1424.26062	-624.51495	-147.70555	1404.66443	-596.40863	-153.53758	1393.55579	-572.32605	-160.55655	1427.36267	-688.95471	-157.70554	1426.78430	-712.72980	-194.27151	1405.48706	-717.47473	-219.43999	1390.73779	-738.79382	18.47814	1333.90222	-711.18567	-13.04468	1372.78015	-617.45575	-65.74673	1355.93713	-792.41479	
1202	5.004	-186.12111	1445.32178	-654.58545	-124.52164	1435.80457	-672.32343	-75.96640	1422.46960	-691.70361	-146.94885	1431.31543	-639.90228	-123.36375	1420.71191	-622.85522	-158.07297	1400.72217	-601.54724	-168.41669	1384.56677	-582.61462	-164.75633	1428.48828	-687.01611	-163.36485	1423.27332	-710.22699	-198.77670	1400.96167	-706.35968	-224.94629	1379.88477	-719.93884	13.54835	1335.10400	-711.91101	-15.81347	1372.35181	-617.95636	-70.02979	1358.72388	-791.76099	
1203	5.008	-190.74985	1444.83740	-652.52991	-128.85892	1437.15466	-670.88361	-80.44208	1423.64063	-690.24683	-151.29541	1432.31653	-638.38751	-127.59041	1418.24170	-622.21417	-166.43700	1400.58069	-606.40796	-180.71753	1381.57788	-593.67297	-169.14275	1429.55847	-685.11322	-167.71199	1420.97021	-707.90570	-201.68564	1400.32239	-696.53949	-227.96841	1375.03406	-701.61279	8.58527	1336.45972	-712.73425	-18.69254	1371.62183	-618.53894	-73.90784	1361.21338	-790.87836	
1204	5.012	-195.55510	1444.09595	-650.37170	-133.64365	1438.27393	-669.41211	-85.23265	1424.44653	-688.70233	-155.79918	1433.24292	-636.88098	-130.86957	1417.15601	-622.14441	-172.36252	1403.73584	-609.54865	-189.81245	1384.12439	-602.71191	-173.78593	1430.43945	-683.25586	-170.85986	1420.13049	-706.32593	-203.94266	1403.34546	-689.47418	-229.77406	1375.97339	-686.56543	3.68087	1338.00049	-713.33636	-21.91777	1370.53003	-619.10559	-77.60904	1363.06067	-789.64337	
1205	5.017	-200.54623	1443.13464	-648.14252	-138.91202	1439.08508	-667.86841	-90.34036	1424.97058	-687.09442	-160.52579	1433.92346	-635.33447	-133.27951	1417.63586	-622.25409	-175.78810	1409.12744	-610.26099	-195.55707	1390.49243	-607.70331	-178.66525	1431.07483	-681.46393	-173.05376	1420.88879	-705.66205	-206.35303	1409.14819	-685.83081	-231.54707	1381.28467	-676.82648	-1.18962	1339.55322	-713.39777	-25.70404	1369.13196	-619.49841	-81.45135	1363.96179	-787.95703	
1206	5.021	-205.69423	1442.00281	-645.89758	-144.61761	1439.52734	-666.27313	-95.72063	1425.29089	-685.45093	-165.47723	1434.22473	-633.76147	-135.12814	1419.68872	-622.37463	-177.13800	1415.79431	-608.67651	-198.22121	1398.50903	-607.90967	-183.71970	1431.40723	-679.75043	-174.51695	1423.25793	-705.61200	-209.17662	1416.59900	-685.37024	-233.95023	1388.96118	-673.23975	-6.13776	1340.79443	-712.71057	-30.19141	1367.56091	-619.51416	-85.74270	1363.78979	-785.81122	
1207	5.025	-210.93474	1440.76917	-643.69336	-150.64983	1439.57056	-664.68109	-101.29329	1425.43762	-683.79230	-170.61601	1434.09973	-632.18774	-136.92894	1423.12134	-622.62854	-177.16902	1423.28064	-605.52527	-198.19450	1406.47754	-603.83118	-188.86894	1431.38293	-678.08087	-175.42125	1427.09241	-705.46405	-212.18303	1424.81360	-687.22235	-236.94124	1397.27283	-675.53717	-11.31073	1341.36914	-711.22058	-35.41375	1365.98987	-618.95068	-90.68790	1362.69629	-783.32697	
1208	5.029	-216.18623	1439.51221	-641.57983	-156.89143	1439.25281	-663.10626	-106.97178	1425.39063	-682.12402	-175.90750	1433.61597	-630.60956	-139.25403	1427.53064	-623.36047	-176.67288	1431.47180	-601.87079	-195.63725	1413.73608	-596.87213	-194.00893	1431.08142	-676.33319	-175.97311	1432.00562	-704.30475	-214.94958	1433.32788	-690.25104	-239.77843	1405.36182	-682.66797	-16.85577	1341.02600	-709.03284	-41.29492	1364.60352	-617.66998	-96.35051	1361.07813	-780.72363	
1209	5.033	-221.38591	1438.30933	-639.60461	-163.21658	1438.65393	-661.58038	-112.69416	1425.11023	-680.43060	-181.32411	1432.90125	-628.98914	-142.52370	1432.35449	-624.92786	-176.26904	1440.09558	-598.88684	-190.53705	1420.65027	-589.07770	-199.03535	1430.78076	-674.30151	-176.49063	1437.36584	-701.37164	-217.09682	1441.89746	-693.27216	-241.27396	1413.36719	-693.00342	-22.88102	1339.72498	-706.38824	-47.66554	1363.57422	-615.65393	-102.67006	1359.42322	-778.24542	
1210	5.037	-226.52000	1437.23608	-637.79639	-169.39951	1437.74048	-660.22858	-118.42123	1424.57959	-678.67859	-186.82808	1432.05261	-627.28461	-146.90228	1436.99402	-627.47498	-176.42606	1448.56714	-597.50800	-183.28740	1428.11511	-582.77985	-203.91960	1430.79187	-671.77179	-177.34711	1442.45813	-696.39014	-218.44055	1450.21436	-695.20331	-240.34125	1422.14697	-704.43549	-29.39426	1337.63538	-703.59705	-54.31120	1363.01392	-613.00543	-109.50770	1358.13733	-776.08807	
1211	5.042	-231.62534	1436.35181	-636.15344	-175.44148	1436.63794	-658.78387	-124.11108	1423.82019	-676.84137	-192.37970	1431.11548	-625.48859	-152.26007	1441.14563	-630.88824	-177.52386	1456.31067	-598.08881	-175.19711	1436.92603	-579.81201	-208.73019	1431.14905	-668.69501	-178.67941	1446.95325	-689.68024	-219.09053	1457.84631	-695.26624	-236.52264	1432.65491	-714.68127	-36.28178	1335.03137	-700.94031	-61.03275	1362.91833	-609.90375	-116.69234	1357.43347	-774.34857	
1212	5.046	-236.76714	1435.68115	-634.65283	-181.29138	1435.40796	-657.22504	-129.71606	1422.86255	-674.91943	-197.95135	1430.12366	-623.64795	-158.33536	1444.58044	-634.85278	-179.76202	1463.02039	-600.34088	-168.16847	1447.35107	-580.80676	-213.56119	1431.53809	-665.29834	-180.48474	1450.66577	-681.77380	-219.41797	1464.43921	-693.25049	-230.13890	1445.26514	-721.70093	-43.35838	1332.16052	-698.57178	-67.67807	1363.17029	-606.54993	-124.05679	1357.30774	-773.01129	
1213	5.050	-242.00076	1435.20496	-633.25366	-186.88081	1434.04480	-655.59399	-135.20815	1421.70984	-672.93933	-203.50653	1429.11658	-621.82642	-165.38942	1446.22949	-638.56445	-183.11508	1468.69006	-603.61072	-163.81041	1459.00891	-585.34607	-218.45787	1431.54785	-662.00781	-183.70671	1452.02515	-673.24402	-219.85141	1469.91882	-689.53253	-222.20360	1459.44409	-724.01245	-50.41856	1329.20630	-696.49500	-74.12971	1363.61938	-603.12744	-131.42838	1357.61438	-771.98334	
1214	5.054	-247.33759	1434.88538	-631.87665	-192.22369	1432.56250	-653.89594	-140.57564	1420.32935	-670.93970	-208.98557	1428.09045	-620.05615	-173.43294	1447.01501	-640.97131	-187.45149	1473.43237	-607.19476	-162.94307	1470.98486	-592.57141	-223.40892	1430.98206	-659.21100	-188.73669	1451.82202	-666.20123	-220.72563	1474.44446	-684.74310	-214.17377	1473.93054	-721.00415	-57.23624	1326.32422	-694.61401	-80.28777	1364.14233	-599.78674	-138.59073	1358.19019	-771.15723	
1215	5.058	-252.73357	1434.66284	-630.42181	-197.36243	1430.98633	-652.13342	-145.79045	1418.67627	-668.96619	-214.34474	1427.03052	-618.33789	-181.82381	1447.60291	-641.39404	-192.65547	1477.29456	-610.46832	-165.69247	1482.07593	-601.43707	-228.39220	1429.97644	-657.04840	-195.05481	1452.20081	-662.02954	-222.32268	1478.17126	-679.48553	-207.56033	1487.26697	-713.20581	-63.56054	1323.68298	-692.81165	-86.07317	1364.63965	-596.64093	-145.29199	1358.90649	-770.44366	
1216	5.063	-258.10599	1434.44275	-628.83820	-202.34084	1429.34155	-650.30902	-150.80873	1416.73608	-667.07373	-219.56897	1425.96326	-616.65784	-189.89554	1448.22107	-640.44550	-198.57204	1480.21313	-612.82617	-171.66011	1491.13977	-610.54810	-233.40807	1428.83203	-655.41412	-202.16310	1452.96448	-659.66943	-224.93414	1481.08936	-674.36664	-203.66139	1498.35876	-702.28687	-69.19854	1321.40466	-691.00610	-91.44894	1365.01904	-593.75934	-151.33109	1359.63354	-769.75757	
